<svg width="1871" height="638" viewBox="0 0 1871 638" fill="none" xmlns="http://www.w3.org/2000/svg">
<rect width="1871" height="638" fill="#002863"/>
<path d="M809.699 151.361L812.153 158.186L820.093 158.186L813.669 162.405L816.123 169.23L809.699 165.012L803.275 169.23L805.729 162.405L799.305 158.186L807.245 158.186L809.699 151.361Z" fill="#D9D9D9"/>
<path d="M903.832 63.1597L906.285 69.9848L914.225 69.9848L907.802 74.203L910.255 81.0281L903.832 76.81L897.408 81.0281L899.862 74.203L893.438 69.9848L901.378 69.9848L903.832 63.1597Z" fill="#D9D9D9"/>
<path d="M457.506 497.212L459.959 504.037L467.899 504.037L461.476 508.255L463.929 515.08L457.506 510.862L451.082 515.08L453.536 508.255L447.112 504.037L455.052 504.037L457.506 497.212Z" fill="#D9D9D9"/>
<path d="M820.629 452.694L823.082 459.519L831.022 459.519L824.599 463.737L827.052 470.562L820.629 466.344L814.205 470.562L816.659 463.737L810.235 459.519L818.175 459.519L820.629 452.694Z" fill="#D9D9D9"/>
<path d="M623.666 97.6611L626.119 104.486L634.059 104.486L627.636 108.704L630.089 115.53L623.666 111.311L617.242 115.53L619.696 108.704L613.272 104.486L621.212 104.486L623.666 97.6611Z" fill="#D9D9D9"/>
<path d="M862.105 315.522L864.559 322.348L872.499 322.348L866.075 326.566L868.529 333.391L862.105 329.173L855.682 333.391L858.135 326.566L851.712 322.348L859.652 322.348L862.105 315.522Z" fill="#D9D9D9"/>
<path d="M942.827 210.905L945.28 217.73L953.22 217.73L946.797 221.948L949.25 228.773L942.827 224.555L936.403 228.773L938.857 221.948L932.433 217.73L940.373 217.73L942.827 210.905Z" fill="#D9D9D9"/>
<path d="M1013.86 527.261L1016.32 534.086L1024.26 534.086L1017.83 538.305L1020.29 545.13L1013.86 540.912L1007.44 545.13L1009.89 538.305L1003.47 534.086L1011.41 534.086L1013.86 527.261Z" fill="#D9D9D9"/>
<path d="M1037.95 325.261L1040.41 332.086L1048.35 332.086L1041.92 336.304L1044.38 343.129L1037.95 338.911L1031.53 343.129L1033.98 336.304L1027.56 332.086L1035.5 332.086L1037.95 325.261Z" fill="#D9D9D9"/>
<path d="M1143.26 439.338L1145.72 446.163L1153.66 446.163L1147.23 450.381L1149.69 457.206L1143.26 452.988L1136.84 457.206L1139.29 450.381L1132.87 446.163L1140.81 446.163L1143.26 439.338Z" fill="#D9D9D9"/>
<path d="M1543.15 481.908L1545.6 488.733L1553.54 488.733L1547.12 492.952L1549.57 499.777L1543.15 495.559L1536.72 499.777L1539.18 492.952L1532.75 488.733L1540.69 488.733L1543.15 481.908Z" fill="#D9D9D9"/>
<path d="M1435.6 537L1438.05 543.825L1445.99 543.825L1439.57 548.043L1442.02 554.868L1435.6 550.65L1429.18 554.868L1431.63 548.043L1425.21 543.825L1433.15 543.825L1435.6 537Z" fill="#D9D9D9"/>
<path d="M1613.68 272.673L1616.14 279.498L1624.08 279.498L1617.65 283.716L1620.11 290.541L1613.68 286.323L1607.26 290.541L1609.71 283.716L1603.29 279.498L1611.23 279.498L1613.68 272.673Z" fill="#D9D9D9"/>
<path d="M1602.76 117.416L1605.21 124.241L1613.15 124.241L1606.73 128.459L1609.18 135.284L1602.76 131.066L1596.33 135.284L1598.79 128.459L1592.36 124.241L1600.3 124.241L1602.76 117.416Z" fill="#D9D9D9"/>
<path d="M150.022 47.2258L148.42 53.9976L153.843 58.0367L147.43 58.1828L145.828 64.9545L143.466 58.273L137.053 58.4191L142.007 54.1437L139.645 47.4622L145.068 51.5013L150.022 47.2258Z" fill="#D9D9D9"/>
<path d="M1111.23 101.278L1114.35 109.065H1124.45L1116.28 113.877L1119.4 121.663L1111.23 116.851L1103.05 121.663L1106.17 113.877L1098 109.065H1108.1L1111.23 101.278Z" fill="#D9D9D9"/>
<path d="M134.38 112.574L136.833 119.399L144.773 119.399L138.35 123.617L140.803 130.442L134.38 126.224L127.956 130.442L130.41 123.617L123.986 119.399L131.926 119.399L134.38 112.574Z" fill="#D9D9D9"/>
<path d="M106.044 546.893L108.497 553.718L116.437 553.718L110.014 557.936L112.467 564.762L106.044 560.543L99.6201 564.762L102.074 557.936L95.6501 553.718L103.59 553.718L106.044 546.893Z" fill="#D9D9D9"/>
<path d="M162.964 178.72L165.417 185.545L173.357 185.545L166.934 189.763L169.387 196.588L162.964 192.37L156.54 196.588L158.994 189.763L152.57 185.545L160.51 185.545L162.964 178.72Z" fill="#D9D9D9"/>
<path d="M265.513 417.079L267.967 423.904L275.907 423.904L269.483 428.122L271.937 434.948L265.513 430.729L259.09 434.948L261.543 428.122L255.12 423.904L263.06 423.904L265.513 417.079Z" fill="#D9D9D9"/>
<path d="M76.2507 425.982L78.7043 432.808L86.6443 432.808L80.2207 437.026L82.6743 443.851L76.2507 439.633L69.8271 443.851L72.2807 437.026L65.8571 432.808L73.7971 432.808L76.2507 425.982Z" fill="#D9D9D9"/>
<path d="M203.375 497.22L205.828 504.045L213.768 504.045L207.345 508.264L209.798 515.089L203.375 510.871L196.951 515.089L199.405 508.264L192.981 504.045L200.921 504.045L203.375 497.22Z" fill="#D9D9D9"/>
<path d="M462.226 117.416L464.68 124.241L472.62 124.241L466.196 128.459L468.65 135.284L462.226 131.066L455.803 135.284L458.256 128.459L451.833 124.241L459.773 124.241L462.226 117.416Z" fill="#D9D9D9"/>
<path d="M448.562 37.2837L451.016 44.1088L458.956 44.1088L452.532 48.327L454.986 55.1522L448.562 50.934L442.139 55.1522L444.592 48.327L438.169 44.1088L446.109 44.1088L448.562 37.2837Z" fill="#D9D9D9"/>
<path d="M634.595 497.212L637.049 504.037L644.989 504.037L638.565 508.255L641.019 515.08L634.595 510.862L628.172 515.08L630.625 508.255L624.202 504.037L632.142 504.037L634.595 497.212Z" fill="#D9D9D9"/>
<path d="M750.586 53.4224L753.039 60.2475L760.979 60.2475L754.556 64.4657L757.009 71.2908L750.586 67.0727L744.162 71.2908L746.616 64.4657L740.192 60.2475L748.132 60.2475L750.586 53.4224Z" fill="#D9D9D9"/>
<path d="M111.632 259.593L115.34 268.533H127.341L117.632 274.058L121.34 282.998L111.632 277.473L101.924 282.998L105.632 274.058L95.9236 268.533H107.924L111.632 259.593Z" fill="#D9D9D9"/>
<path d="M1237.03 319.14L1239.95 324.523L1249.43 324.523L1241.76 327.85L1244.69 333.233L1237.03 329.906L1229.36 333.233L1232.29 327.85L1224.63 324.523L1234.1 324.523L1237.03 319.14Z" fill="#D9D9D9"/>
<path d="M1390.65 230.381L1393.43 238.744H1402.46L1395.16 243.913L1397.95 252.276L1390.65 247.107L1383.35 252.276L1386.13 243.913L1378.84 238.744H1387.86L1390.65 230.381Z" fill="#D9D9D9"/>
<path d="M1415.98 68.4468L1418.88 76.9061H1428.26L1420.67 82.1343L1423.57 90.5936L1415.98 85.3655L1408.39 90.5936L1411.29 82.1343L1403.7 76.9061H1413.08L1415.98 68.4468Z" fill="#D9D9D9"/>
<path d="M1145 216.469L1147.07 221.276H1153.74L1148.34 224.246L1150.4 229.053L1145 226.082L1139.6 229.053L1141.66 224.246L1136.26 221.276H1142.94L1145 216.469Z" fill="#D9D9D9"/>
<path d="M1300.86 168.055L1302.61 175.361H1308.3L1303.7 179.876L1305.45 187.182L1300.86 182.667L1296.26 187.182L1298.01 179.876L1293.41 175.361H1299.1L1300.86 168.055Z" fill="#D9D9D9"/>
<path d="M1198.78 28.3809L1201.2 36.2634H1209.05L1202.7 41.1351L1205.13 49.0177L1198.78 44.146L1192.43 49.0177L1194.85 41.1351L1188.5 36.2634H1196.35L1198.78 28.3809Z" fill="#D9D9D9"/>
<path d="M369.579 52.0308L371.196 57.7985H376.429L372.195 61.3632L373.813 67.1309L369.579 63.5662L365.345 67.1309L366.962 61.3632L362.729 57.7985H367.962L369.579 52.0308Z" fill="#D9D9D9"/>
<path d="M325.245 14.7466L327.113 22.533H333.159L328.268 27.3453L330.136 35.1318L325.245 30.3195L320.355 35.1318L322.223 27.3453L317.332 22.533H323.377L325.245 14.7466Z" fill="#D9D9D9"/>
<path d="M325.246 82.9155L328.453 93.2013H338.829L330.434 99.5583L333.641 109.844L325.246 103.487L316.852 109.844L320.058 99.5583L311.664 93.2013H322.04L325.246 82.9155Z" fill="#D9D9D9"/>
<path d="M63.9576 167.5L66.0487 173.556H72.8157L67.3411 177.299L69.4322 183.355L63.9576 179.612L58.4829 183.355L60.5741 177.299L55.0994 173.556H61.8664L63.9576 167.5Z" fill="#D9D9D9"/>
<path d="M330.633 530.419L332.612 536.091L339.018 536.091L333.836 539.596L335.815 545.267L330.633 541.762L325.45 545.267L327.43 539.596L322.247 536.091L328.653 536.091L330.633 530.419Z" fill="#D9D9D9"/>
<path d="M47.5562 47.5495L52.0736 54.5325L61.9582 52.1789L54.8656 58.8482L59.3831 65.8312L50.4821 62.9702L43.3895 69.6395L44.981 61.2019L36.08 58.3408L45.9646 55.9872L47.5562 47.5495Z" fill="#D9D9D9"/>
<path d="M780.931 373.659L785.449 380.642L795.333 378.289L788.241 384.958L792.758 391.941L783.857 389.08L776.764 395.749L778.356 387.312L769.455 384.451L779.34 382.097L780.931 373.659Z" fill="#D9D9D9"/>
<path d="M34.7163 325.718L39.2338 332.701L49.1184 330.347L42.0258 337.017L46.5432 344L37.6423 341.139L30.5496 347.808L32.1412 339.37L23.2402 336.509L33.1248 334.156L34.7163 325.718Z" fill="#D9D9D9"/>
<path d="M258.502 125.943L263.02 132.926L272.905 130.572L265.812 137.242L270.329 144.225L261.428 141.364L254.336 148.033L255.927 139.595L247.026 136.734L256.911 134.381L258.502 125.943Z" fill="#D9D9D9"/>
<path d="M149.961 420.318L154.479 427.301L164.364 424.947L157.271 431.617L161.788 438.6L152.887 435.739L145.795 442.408L147.386 433.97L138.485 431.109L148.37 428.756L149.961 420.318Z" fill="#D9D9D9"/>
<path d="M248.622 45.0747L250.853 51.8999L258.071 51.8999L252.232 56.118L254.462 62.9432L248.622 58.725L242.783 62.9432L245.013 56.118L239.174 51.8999L246.392 51.8999L248.622 45.0747Z" fill="#D9D9D9"/>
<path d="M784.1 600.678L790.133 598.776L790.864 590.528L793.861 597.6L799.893 595.697L795.713 601.97L798.71 609.042L793.13 605.847L788.95 612.121L789.681 603.873L784.1 600.678Z" fill="#D9D9D9"/>
<rect x="284.604" y="338.719" width="373.806" height="138.533" fill="#48CBF4"/>
<ellipse cx="267.357" cy="369.546" rx="117.785" ry="107.706" fill="#48CBF4"/>
<ellipse cx="335.735" cy="273.945" rx="94.4987" ry="95.725" fill="#48CBF4"/>
<ellipse cx="462.144" cy="369.545" rx="94.4987" ry="95.725" fill="#48CBF4"/>
<ellipse cx="596.437" cy="273.945" rx="94.4987" ry="95.725" fill="#48CBF4"/>
<ellipse cx="658.533" cy="381.527" rx="94.4987" ry="95.725" fill="#48CBF4"/>
<ellipse cx="556.642" cy="213.041" rx="102.753" ry="95.725" fill="#48CBF4"/>
<ellipse cx="450.808" cy="242.994" rx="94.4987" ry="95.725" fill="#48CBF4"/>
<path d="M407.841 394.725C404.889 394.725 402.38 393.802 400.313 391.956C398.247 390.111 397.214 387.87 397.214 385.233V316.575C397.214 313.939 398.247 311.698 400.313 309.852C402.38 308.006 404.889 307.084 407.841 307.084H420.239V291.897C420.239 283.565 423.515 276.473 430.068 270.619C436.621 264.766 444.562 261.839 453.89 261.839C463.218 261.839 471.158 264.766 477.712 270.619C484.265 276.473 487.541 283.565 487.541 291.897V307.084H499.939C502.891 307.084 505.4 308.006 507.467 309.852C509.533 311.698 510.566 313.939 510.566 316.575V385.233C510.566 387.87 509.533 390.111 507.467 391.956C505.4 393.802 502.891 394.725 499.939 394.725H407.841ZM407.841 385.233H499.939V316.575H407.841V385.233ZM453.89 363.085C457.668 363.085 460.886 361.925 463.543 359.605C466.199 357.285 467.528 354.49 467.528 351.221C467.528 348.057 466.199 345.183 463.543 342.599C460.886 340.015 457.668 338.723 453.89 338.723C450.112 338.723 446.894 340.015 444.237 342.599C441.581 345.183 440.252 348.057 440.252 351.221C440.252 354.49 441.581 357.285 444.237 359.605C446.894 361.925 450.112 363.085 453.89 363.085ZM430.865 307.084H476.915V291.897C476.915 286.202 474.671 281.35 470.184 277.343C465.697 273.335 460.266 271.331 453.89 271.331C447.514 271.331 442.082 273.335 437.596 277.343C433.109 281.35 430.865 286.202 430.865 291.897V307.084Z" fill="black"/>
</svg>
